<?xml version="1.0" encoding="UTF-8" standalone="no"?>
<!DOCTYPE svg PUBLIC "-//W3C//DTD SVG 1.1//EN"
 "http://www.w3.org/Graphics/SVG/1.1/DTD/svg11.dtd">
<!-- Generated by graphviz version 2.42.3 (20191010.1750)
 -->
<!-- Title: snakemake_dag Pages: 1 -->
<svg width="129pt" height="620pt"
 viewBox="0.00 0.00 129.00 620.00" xmlns="http://www.w3.org/2000/svg" xmlns:xlink="http://www.w3.org/1999/xlink">
<g id="graph0" class="graph" transform="scale(1 1) rotate(0) translate(4 616)">
<title>snakemake_dag</title>
<polygon fill="white" stroke="transparent" points="-4,4 -4,-616 125,-616 125,4 -4,4"/>
<!-- 0 -->
<g id="node1" class="node">
<title>0</title>
<path fill="none" stroke="#70d856" stroke-width="2" stroke-dasharray="5,2" d="M75.5,-36C75.5,-36 45.5,-36 45.5,-36 39.5,-36 33.5,-30 33.5,-24 33.5,-24 33.5,-12 33.5,-12 33.5,-6 39.5,0 45.5,0 45.5,0 75.5,0 75.5,0 81.5,0 87.5,-6 87.5,-12 87.5,-12 87.5,-24 87.5,-24 87.5,-30 81.5,-36 75.5,-36"/>
<text text-anchor="middle" x="60.5" y="-15.5" font-family="sans" font-size="10.00">all</text>
</g>
<!-- 1 -->
<g id="node2" class="node">
<title>1</title>
<path fill="none" stroke="#56d873" stroke-width="2" stroke-dasharray="5,2" d="M75.5,-108C75.5,-108 45.5,-108 45.5,-108 39.5,-108 33.5,-102 33.5,-96 33.5,-96 33.5,-84 33.5,-84 33.5,-78 39.5,-72 45.5,-72 45.5,-72 75.5,-72 75.5,-72 81.5,-72 87.5,-78 87.5,-84 87.5,-84 87.5,-96 87.5,-96 87.5,-102 81.5,-108 75.5,-108"/>
<text text-anchor="middle" x="60.5" y="-87.5" font-family="sans" font-size="10.00">ete3</text>
</g>
<!-- 1&#45;&gt;0 -->
<g id="edge1" class="edge">
<title>1&#45;&gt;0</title>
<path fill="none" stroke="grey" stroke-width="2" d="M60.5,-71.7C60.5,-63.98 60.5,-54.71 60.5,-46.11"/>
<polygon fill="grey" stroke="grey" stroke-width="2" points="64,-46.1 60.5,-36.1 57,-46.1 64,-46.1"/>
</g>
<!-- 2 -->
<g id="node3" class="node">
<title>2</title>
<path fill="none" stroke="#d88d56" stroke-width="2" stroke-dasharray="5,2" d="M76,-180C76,-180 45,-180 45,-180 39,-180 33,-174 33,-168 33,-168 33,-156 33,-156 33,-150 39,-144 45,-144 45,-144 76,-144 76,-144 82,-144 88,-150 88,-156 88,-156 88,-168 88,-168 88,-174 82,-180 76,-180"/>
<text text-anchor="middle" x="60.5" y="-159.5" font-family="sans" font-size="10.00">fasttree</text>
</g>
<!-- 2&#45;&gt;1 -->
<g id="edge2" class="edge">
<title>2&#45;&gt;1</title>
<path fill="none" stroke="grey" stroke-width="2" d="M60.5,-143.7C60.5,-135.98 60.5,-126.71 60.5,-118.11"/>
<polygon fill="grey" stroke="grey" stroke-width="2" points="64,-118.1 60.5,-108.1 57,-118.1 64,-118.1"/>
</g>
<!-- 3 -->
<g id="node4" class="node">
<title>3</title>
<path fill="none" stroke="#56d8a9" stroke-width="2" stroke-dasharray="5,2" d="M75.5,-252C75.5,-252 45.5,-252 45.5,-252 39.5,-252 33.5,-246 33.5,-240 33.5,-240 33.5,-228 33.5,-228 33.5,-222 39.5,-216 45.5,-216 45.5,-216 75.5,-216 75.5,-216 81.5,-216 87.5,-222 87.5,-228 87.5,-228 87.5,-240 87.5,-240 87.5,-246 81.5,-252 75.5,-252"/>
<text text-anchor="middle" x="60.5" y="-231.5" font-family="sans" font-size="10.00">trimal</text>
</g>
<!-- 3&#45;&gt;2 -->
<g id="edge3" class="edge">
<title>3&#45;&gt;2</title>
<path fill="none" stroke="grey" stroke-width="2" d="M60.5,-215.7C60.5,-207.98 60.5,-198.71 60.5,-190.11"/>
<polygon fill="grey" stroke="grey" stroke-width="2" points="64,-190.1 60.5,-180.1 57,-190.1 64,-190.1"/>
</g>
<!-- 4 -->
<g id="node5" class="node">
<title>4</title>
<path fill="none" stroke="#afd856" stroke-width="2" stroke-dasharray="5,2" d="M75.5,-324C75.5,-324 45.5,-324 45.5,-324 39.5,-324 33.5,-318 33.5,-312 33.5,-312 33.5,-300 33.5,-300 33.5,-294 39.5,-288 45.5,-288 45.5,-288 75.5,-288 75.5,-288 81.5,-288 87.5,-294 87.5,-300 87.5,-300 87.5,-312 87.5,-312 87.5,-318 81.5,-324 75.5,-324"/>
<text text-anchor="middle" x="60.5" y="-303.5" font-family="sans" font-size="10.00">mafft</text>
</g>
<!-- 4&#45;&gt;3 -->
<g id="edge4" class="edge">
<title>4&#45;&gt;3</title>
<path fill="none" stroke="grey" stroke-width="2" d="M60.5,-287.7C60.5,-279.98 60.5,-270.71 60.5,-262.11"/>
<polygon fill="grey" stroke="grey" stroke-width="2" points="64,-262.1 60.5,-252.1 57,-262.1 64,-262.1"/>
</g>
<!-- 5 -->
<g id="node6" class="node">
<title>5</title>
<path fill="none" stroke="#5692d8" stroke-width="2" stroke-dasharray="5,2" d="M95.5,-396C95.5,-396 25.5,-396 25.5,-396 19.5,-396 13.5,-390 13.5,-384 13.5,-384 13.5,-372 13.5,-372 13.5,-366 19.5,-360 25.5,-360 25.5,-360 95.5,-360 95.5,-360 101.5,-360 107.5,-366 107.5,-372 107.5,-372 107.5,-384 107.5,-384 107.5,-390 101.5,-396 95.5,-396"/>
<text text-anchor="middle" x="60.5" y="-375.5" font-family="sans" font-size="10.00">add_query_msa</text>
</g>
<!-- 5&#45;&gt;4 -->
<g id="edge5" class="edge">
<title>5&#45;&gt;4</title>
<path fill="none" stroke="grey" stroke-width="2" d="M60.5,-359.7C60.5,-351.98 60.5,-342.71 60.5,-334.11"/>
<polygon fill="grey" stroke="grey" stroke-width="2" points="64,-334.1 60.5,-324.1 57,-334.1 64,-334.1"/>
</g>
<!-- 6 -->
<g id="node7" class="node">
<title>6</title>
<path fill="none" stroke="#d85656" stroke-width="2" stroke-dasharray="5,2" d="M83.5,-468C83.5,-468 37.5,-468 37.5,-468 31.5,-468 25.5,-462 25.5,-456 25.5,-456 25.5,-444 25.5,-444 25.5,-438 31.5,-432 37.5,-432 37.5,-432 83.5,-432 83.5,-432 89.5,-432 95.5,-438 95.5,-444 95.5,-444 95.5,-456 95.5,-456 95.5,-462 89.5,-468 83.5,-468"/>
<text text-anchor="middle" x="60.5" y="-447.5" font-family="sans" font-size="10.00">gb_parsing</text>
</g>
<!-- 6&#45;&gt;5 -->
<g id="edge6" class="edge">
<title>6&#45;&gt;5</title>
<path fill="none" stroke="grey" stroke-width="2" d="M60.5,-431.7C60.5,-423.98 60.5,-414.71 60.5,-406.11"/>
<polygon fill="grey" stroke="grey" stroke-width="2" points="64,-406.1 60.5,-396.1 57,-406.1 64,-406.1"/>
</g>
<!-- 7 -->
<g id="node8" class="node">
<title>7</title>
<path fill="none" stroke="#d8cb56" stroke-width="2" stroke-dasharray="5,2" d="M75.5,-540C75.5,-540 45.5,-540 45.5,-540 39.5,-540 33.5,-534 33.5,-528 33.5,-528 33.5,-516 33.5,-516 33.5,-510 39.5,-504 45.5,-504 45.5,-504 75.5,-504 75.5,-504 81.5,-504 87.5,-510 87.5,-516 87.5,-516 87.5,-528 87.5,-528 87.5,-534 81.5,-540 75.5,-540"/>
<text text-anchor="middle" x="60.5" y="-519.5" font-family="sans" font-size="10.00">gb_pull</text>
</g>
<!-- 7&#45;&gt;6 -->
<g id="edge7" class="edge">
<title>7&#45;&gt;6</title>
<path fill="none" stroke="grey" stroke-width="2" d="M60.5,-503.7C60.5,-495.98 60.5,-486.71 60.5,-478.11"/>
<polygon fill="grey" stroke="grey" stroke-width="2" points="64,-478.1 60.5,-468.1 57,-478.1 64,-478.1"/>
</g>
<!-- 8 -->
<g id="node9" class="node">
<title>8</title>
<path fill="none" stroke="#56c9d8" stroke-width="2" stroke-dasharray="5,2" d="M109,-612C109,-612 12,-612 12,-612 6,-612 0,-606 0,-600 0,-600 0,-588 0,-588 0,-582 6,-576 12,-576 12,-576 109,-576 109,-576 115,-576 121,-582 121,-588 121,-588 121,-600 121,-600 121,-606 115,-612 109,-612"/>
<text text-anchor="middle" x="60.5" y="-597" font-family="sans" font-size="10.00">blast</text>
<text text-anchor="middle" x="60.5" y="-586" font-family="sans" font-size="10.00">sample: Pongo_abelii</text>
</g>
<!-- 8&#45;&gt;7 -->
<g id="edge8" class="edge">
<title>8&#45;&gt;7</title>
<path fill="none" stroke="grey" stroke-width="2" d="M60.5,-575.7C60.5,-567.98 60.5,-558.71 60.5,-550.11"/>
<polygon fill="grey" stroke="grey" stroke-width="2" points="64,-550.1 60.5,-540.1 57,-550.1 64,-550.1"/>
</g>
</g>
</svg>
